<svg width="440" height="93" viewBox="0 0 440 93" fill="none" xmlns="http://www.w3.org/2000/svg">
<path d="M30.1127 60.4503L22.2542 44.0379L15.0216 60.4503H30.1127ZM10.4317 70.6038C10.2462 71.0211 10.0376 71.4847 9.80576 71.9947C9.57395 72.5047 9.45804 72.8988 9.45804 73.177C9.45804 73.687 9.85213 73.942 10.6403 73.942V74.7765H2.08633V73.942C2.36451 73.942 2.59633 73.9188 2.78178 73.8724C3.01359 73.826 3.22222 73.687 3.40768 73.4551C3.59313 73.2233 3.80176 72.8988 4.03358 72.4815C4.26539 72.0179 4.56675 71.4152 4.93765 70.6734L17.5252 42.5774C17.8961 41.7893 18.1743 41.2097 18.3597 40.8388C18.5452 40.4215 18.6379 40.097 18.6379 39.8652C18.6379 39.3088 18.2206 39.0307 17.3861 39.0307V38.1961H27.5396V39.0307C26.7978 39.0307 26.4269 39.3088 26.4269 39.8652C26.4269 40.1434 26.5428 40.5143 26.7746 40.9779C27.0064 41.3952 27.3078 41.9979 27.6787 42.7861L41.0312 70.4647C41.4485 71.2993 41.773 71.9483 42.0048 72.412C42.2366 72.8756 42.4453 73.2233 42.6307 73.4551C42.8625 73.687 43.0944 73.826 43.3262 73.8724C43.558 73.9188 43.8825 73.942 44.2998 73.942V74.7765H34.6331V73.942C35.1895 73.942 35.5604 73.8724 35.7458 73.7333C35.9313 73.5479 36.024 73.2929 36.024 72.9683C36.024 72.7365 35.9545 72.5047 35.8154 72.2729C35.7227 71.9947 35.4908 71.4384 35.1199 70.6038L32.4772 65.0403H12.7962L10.4317 70.6038ZM99.3089 54.1913C102.137 54.1913 104.131 53.6582 105.29 52.5918C106.449 51.5255 107.028 50.065 107.028 48.2105C107.028 47.2833 106.912 46.4951 106.681 45.846C106.449 45.1969 106.032 44.6638 105.429 44.2465C104.826 43.7829 103.992 43.4583 102.925 43.2729C101.905 43.0411 100.584 42.9251 98.9612 42.9251H84.0787V54.1913H99.3089ZM84.0787 72.2729C84.0787 72.7829 84.1946 73.2001 84.4264 73.5247C84.6582 73.8029 85.0986 73.942 85.7477 73.942V74.7765H76.5679V73.942C77.2169 73.942 77.6574 73.8029 77.8892 73.5247C78.121 73.2001 78.2369 72.7829 78.2369 72.2729V40.6997C78.2369 40.1897 78.121 39.7956 77.8892 39.5175C77.6574 39.1929 77.2169 39.0307 76.5679 39.0307V38.1961H99.8652C104.455 38.1961 107.747 39.077 109.741 40.8388C111.734 42.5542 112.731 45.0578 112.731 48.3496C112.731 51.2705 111.966 53.5886 110.436 55.3041C108.906 57.0195 106.402 58.109 102.925 58.5726L111.688 72.1338C112.198 72.8756 112.592 73.3624 112.87 73.5942C113.195 73.826 113.705 73.942 114.4 73.942V74.7765H104.386V73.942C104.988 73.942 105.359 73.8956 105.498 73.8029C105.684 73.7101 105.777 73.5479 105.777 73.3161C105.777 73.0379 105.661 72.7829 105.429 72.5511L96.8748 58.9204H84.0787V72.2729ZM172.447 54.1913C175.275 54.1913 177.269 53.6582 178.428 52.5918C179.587 51.5255 180.167 50.065 180.167 48.2105C180.167 47.2833 180.051 46.4951 179.819 45.846C179.587 45.1969 179.17 44.6638 178.567 44.2465C177.965 43.7829 177.13 43.4583 176.064 43.2729C175.044 43.0411 173.722 42.9251 172.1 42.9251H157.217V54.1913H172.447ZM157.217 72.2729C157.217 72.7829 157.333 73.2001 157.565 73.5247C157.797 73.8029 158.237 73.942 158.886 73.942V74.7765H149.706V73.942C150.355 73.942 150.796 73.8029 151.028 73.5247C151.259 73.2001 151.375 72.7829 151.375 72.2729V40.6997C151.375 40.1897 151.259 39.7956 151.028 39.5175C150.796 39.1929 150.355 39.0307 149.706 39.0307V38.1961H173.004C177.594 38.1961 180.885 39.077 182.879 40.8388C184.873 42.5542 185.869 45.0578 185.869 48.3496C185.869 51.2705 185.104 53.5886 183.574 55.3041C182.044 57.0195 179.541 58.109 176.064 58.5726L184.826 72.1338C185.336 72.8756 185.73 73.3624 186.009 73.5942C186.333 73.826 186.843 73.942 187.538 73.942V74.7765H177.524V73.942C178.127 73.942 178.498 73.8956 178.637 73.8029C178.822 73.7101 178.915 73.5479 178.915 73.3161C178.915 73.0379 178.799 72.7829 178.567 72.5511L170.013 58.9204H157.217V72.2729ZM222.567 73.942C223.216 73.942 223.656 73.8029 223.888 73.5247C224.12 73.2001 224.236 72.7829 224.236 72.2729V40.6997C224.236 40.1897 224.12 39.7956 223.888 39.5175C223.656 39.1929 223.216 39.0307 222.567 39.0307V38.1961H231.746V39.0307C231.097 39.0307 230.657 39.1929 230.425 39.5175C230.193 39.7956 230.077 40.1897 230.077 40.6997V72.2729C230.077 72.7829 230.193 73.2001 230.425 73.5247C230.657 73.8029 231.097 73.942 231.746 73.942V74.7765H222.567V73.942ZM277.785 73.942C278.434 73.942 278.875 73.8724 279.107 73.7333C279.339 73.5479 279.454 73.3392 279.454 73.1074C279.454 72.7829 279.431 72.5511 279.385 72.412C279.339 72.2265 279.223 71.9483 279.037 71.5774L265.406 41.3952C264.943 40.3752 264.526 39.7261 264.155 39.4479C263.784 39.1697 263.274 39.0307 262.625 39.0307V38.1961H272.639V39.0307C271.434 39.0307 270.831 39.4016 270.831 40.1434C270.831 40.3288 270.877 40.5375 270.97 40.7693C271.109 40.9547 271.225 41.1634 271.318 41.3952L283.349 68.1002L294.754 41.3952C294.847 41.1634 294.94 40.9547 295.032 40.7693C295.125 40.5838 295.172 40.3984 295.172 40.2129C295.172 39.842 295.032 39.5638 294.754 39.3784C294.522 39.1466 294.059 39.0307 293.363 39.0307V38.1961H303.239V39.0307C302.59 39.0307 302.056 39.2161 301.639 39.587C301.222 39.9116 300.828 40.5143 300.457 41.3952L287.383 71.5774C287.336 71.6702 287.22 71.902 287.035 72.2729C286.896 72.5974 286.826 72.8756 286.826 73.1074C286.826 73.3392 286.919 73.5479 287.104 73.7333C287.29 73.8724 287.73 73.942 288.426 73.942V74.7765H277.785V73.942ZM357.297 60.4503L349.439 44.0379L342.206 60.4503H357.297ZM337.616 70.6038C337.431 71.0211 337.222 71.4847 336.991 71.9947C336.759 72.5047 336.643 72.8988 336.643 73.177C336.643 73.687 337.037 73.942 337.825 73.942V74.7765H329.271V73.942C329.549 73.942 329.781 73.9188 329.967 73.8724C330.198 73.826 330.407 73.687 330.592 73.4551C330.778 73.2233 330.987 72.8988 331.218 72.4815C331.45 72.0179 331.752 71.4152 332.122 70.6734L344.71 42.5774C345.081 41.7893 345.359 41.2097 345.544 40.8388C345.73 40.4215 345.823 40.097 345.823 39.8652C345.823 39.3088 345.405 39.0307 344.571 39.0307V38.1961H354.724V39.0307C353.983 39.0307 353.612 39.3088 353.612 39.8652C353.612 40.1434 353.728 40.5143 353.959 40.9779C354.191 41.3952 354.493 41.9979 354.863 42.7861L368.216 70.4647C368.633 71.2993 368.958 71.9483 369.19 72.412C369.421 72.8756 369.63 73.2233 369.815 73.4551C370.047 73.687 370.279 73.826 370.511 73.8724C370.743 73.9188 371.067 73.942 371.485 73.942V74.7765H361.818V73.942C362.374 73.942 362.745 73.8724 362.931 73.7333C363.116 73.5479 363.209 73.2929 363.209 72.9683C363.209 72.7365 363.139 72.5047 363 72.2729C362.907 71.9947 362.676 71.4384 362.305 70.6038L359.662 65.0403H339.981L337.616 70.6038ZM412.237 39.0307C411.588 39.0307 411.147 39.1929 410.916 39.5175C410.684 39.842 410.568 40.3288 410.568 40.9779V70.1866H433.935C435.558 70.1866 436.369 69.4911 436.369 68.1002H437.203V76.0978H436.369C436.369 75.2169 435.558 74.7765 433.935 74.7765H403.057V73.942C403.706 73.942 404.147 73.8029 404.379 73.5247C404.61 73.2001 404.726 72.7829 404.726 72.2729V40.6997C404.726 40.1897 404.61 39.7956 404.379 39.5175C404.147 39.1929 403.706 39.0307 403.057 39.0307V38.1961H412.237V39.0307Z" fill="#1D1D1D"/>
<path d="M203.466 9.61923H205.106V28H203.495L192.89 12.4188V28H191.25V9.61923H192.834L203.466 25.2287V9.61923ZM220.521 11.1462H210.425V18.0744H219.927V19.6014H210.425V26.473H220.521V28H208.785V9.61923H220.521V11.1462ZM246.453 9.61923H248.206L242.07 28H240.712L235.707 13.0126L230.702 28H229.344L223.208 9.61923H224.961L230.051 24.9177L235.141 9.61923H236.357L241.419 24.7763L246.453 9.61923Z" fill="#1D1D1D"/>
<rect x="261.318" y="16.8593" width="172.807" height="0.702469" fill="#1D1D1D"/>
<rect x="4.91748" y="16.8593" width="172.807" height="0.702469" fill="#1D1D1D"/>
</svg>
